<?xml version="1.0" encoding="UTF-8"?>
<svg width="800" height="450" viewBox="0 0 800 450" xmlns="http://www.w3.org/2000/svg">
  <defs>
    <linearGradient id="bgGradient" x1="0%" y1="0%" x2="100%" y2="100%">
      <stop offset="0%" stop-color="#1565C0"/>
      <stop offset="100%" stop-color="#0288D1"/>
    </linearGradient>
    <filter id="glow" x="-20%" y="-20%" width="140%" height="140%">
      <feGaussianBlur stdDeviation="5" result="blur"/>
      <feComposite in="SourceGraphic" in2="blur" operator="over"/>
    </filter>
    <filter id="shadow" x="-10%" y="-10%" width="120%" height="120%">
      <feDropShadow dx="3" dy="3" stdDeviation="5" flood-opacity="0.3"/>
    </filter>
  </defs>
  
  <!-- Background -->
  <rect width="800" height="450" fill="url(#bgGradient)" rx="15" ry="15"/>
  
  <!-- House Outline -->
  <g transform="translate(180, 225) scale(1.2)" filter="url(#shadow)">
    <!-- House Body -->
    <rect x="-100" y="-50" width="200" height="150" fill="#ffffff" rx="3" ry="3"/>
    
    <!-- Roof -->
    <polygon points="-120,-50 0,-130 120,-50" fill="#e0e0e0"/>
    
    <!-- Windows -->
    <rect x="-70" y="-20" width="40" height="40" fill="#2196F3" opacity="0.7"/>
    <rect x="30" y="-20" width="40" height="40" fill="#2196F3" opacity="0.7"/>
    <rect x="-70" y="40" width="40" height="40" fill="#2196F3" opacity="0.7"/>
    <rect x="30" y="40" width="40" height="40" fill="#2196F3" opacity="0.7"/>
    
    <!-- Door -->
    <rect x="-15" y="50" width="30" height="50" fill="#5D4037"/>
    <circle cx="7" cy="75" r="3" fill="#FFC107"/>
  </g>
  
  <!-- IoT Devices and Connections -->
  <!-- Smart Thermostat -->
  <circle cx="550" cy="150" r="35" fill="#ffffff" filter="url(#shadow)"/>
  <circle cx="550" cy="150" r="28" fill="#E0F7FA"/>
  <text x="550" y="155" font-family="Arial, sans-serif" font-size="10" fill="#0288D1" text-anchor="middle">24°C</text>
  <path d="M360,150 C440,150 470,150 510,150" stroke="#ffffff" stroke-width="2" stroke-dasharray="5,5"/>
  
  <!-- Smart Light -->
  <g transform="translate(550, 250)" filter="url(#shadow)">
    <circle cx="0" cy="0" r="35" fill="#ffffff"/>
    <polygon points="0,-25 -5,-10 -20,-10 -8,-2 -12,15 0,5 12,15 8,-2 20,-10 5,-10" fill="#FFC107" filter="url(#glow)">
      <animate attributeName="opacity" values="0.7;1;0.7" dur="3s" repeatCount="indefinite"/>
    </polygon>
  </g>
  <path d="M360,250 C440,250 470,250 510,250" stroke="#ffffff" stroke-width="2" stroke-dasharray="5,5"/>
  
  <!-- Smart Security -->
  <g transform="translate(550, 350)" filter="url(#shadow)">
    <circle cx="0" cy="0" r="35" fill="#ffffff"/>
    <rect x="-15" y="-15" width="30" height="25" fill="#424242" rx="2" ry="2"/>
    <circle cx="0" cy="0" r="8" fill="#f44336">
      <animate attributeName="opacity" values="0.7;1;0.7" dur="2s" repeatCount="indefinite"/>
    </circle>
    <rect x="-18" y="15" width="36" height="5" fill="#424242" rx="1" ry="1"/>
  </g>
  <path d="M360,350 C440,350 470,350 510,350" stroke="#ffffff" stroke-width="2" stroke-dasharray="5,5"/>
  
  <!-- Connection Points Glow -->
  <circle cx="360" cy="150" r="5" fill="#4CAF50" opacity="0.8">
    <animate attributeName="opacity" values="0.8;1;0.8" dur="2s" repeatCount="indefinite"/>
  </circle>
  <circle cx="360" cy="250" r="5" fill="#4CAF50" opacity="0.8">
    <animate attributeName="opacity" values="0.8;1;0.8" dur="1.5s" repeatCount="indefinite"/>
  </circle>
  <circle cx="360" cy="350" r="5" fill="#4CAF50" opacity="0.8">
    <animate attributeName="opacity" values="0.8;1;0.8" dur="2.5s" repeatCount="indefinite"/>
  </circle>
  
  <!-- Wifi Icon -->
  <g transform="translate(420, 80) scale(0.7)" filter="url(#shadow)">
    <circle cx="0" cy="0" r="25" fill="#ffffff"/>
    <path d="M0,10 C-15,10 -15,-15 0,-15 C15,-15 15,10 0,10" fill="none" stroke="#03A9F4" stroke-width="5" stroke-linecap="round"/>
    <path d="M0,5 C-10,5 -10,-10 0,-10 C10,-10 10,5 0,5" fill="none" stroke="#03A9F4" stroke-width="5" stroke-linecap="round"/>
    <circle cx="0" cy="0" r="5" fill="#03A9F4"/>
  </g>
  
  <!-- Title -->
  <text x="400" y="420" font-family="Arial, sans-serif" font-size="24" fill="#ffffff" text-anchor="middle" font-weight="bold">AI-Powered Home Automation in 2025</text>
</svg>